<svg height="512pt" viewBox="0 0 512 512" width="512pt" xmlns="http://www.w3.org/2000/svg"><path d="m240 512h-192c-26.464844 0-48-21.535156-48-48v-416c0-26.464844 21.535156-48 48-48h192c26.464844 0 48 21.535156 48 48v416c0 26.464844-21.535156 48-48 48zm0 0" fill="#d7dee2"/><path d="m0 144h288v224h-288zm0 0" fill="#40a2e7"/><path d="m128 64h96v32h-96zm0 0" fill="#fff"/><path d="m64 64h32v32h-32zm0 0" fill="#fff"/><path d="m128 424h32v32h-32zm0 0" fill="#fff"/><path d="m240 480h-192c-26.464844 0-48-21.535156-48-48v32c0 26.464844 21.535156 48 48 48h192c26.464844 0 48-21.535156 48-48v-32c0 26.464844-21.535156 48-48 48zm0 0" fill="#bfc9d1"/><path d="m0 144h288v32h-288zm0 0" fill="#168de2"/><path d="m192 184-96 72 96 72v40h96v-224h-96zm0 0" fill="#168de2"/><path d="m192 368h96v48h-96zm0 0" fill="#bfc9d1"/><path d="m192 96h96v48h-96zm0 0" fill="#bfc9d1"/><path d="m512 384h-288v-72l-74.671875-56 74.671875-56v-72h288zm0 0" fill="#ffcb5a"/><g fill="#fff"><path d="m288 208h160v32h-160zm0 0"/><path d="m416 272h32v32h-32zm0 0"/><path d="m352 272h32v32h-32zm0 0"/><path d="m288 272h32v32h-32zm0 0"/></g></svg>